<svg xmlns="http://www.w3.org/2000/svg" version="1.1" xmlns:xlink="http://www.w3.org/1999/xlink" xmlns:svgjs="http://svgjs.dev/svgjs" width="1000" height="1000" viewBox="0 0 1000 1000"><rect width="1000" height="1000" fill="#ffffff"></rect><g transform="matrix(0.7,0,0,0.7,149.57575757575756,282.1265587044535)"><svg viewBox="0 0 396 247" data-background-color="#31c48d" preserveAspectRatio="xMidYMid meet" height="623" width="1000" xmlns="http://www.w3.org/2000/svg" xmlns:xlink="http://www.w3.org/1999/xlink"><g id="tight-bounds" transform="matrix(1,0,0,1,0.2400000000000091,-0.09999999999999432)"><svg viewBox="0 0 395.52 247.2" height="247.2" width="395.52"><g><svg></svg></g><g><svg viewBox="0 0 395.52 247.2" height="247.2" width="395.52"><mask id="6ac6231c-f66d-4a75-bf2d-c3e295f95eb4"><rect width="395.52" height="247.2" fill="white"></rect><g transform="matrix(1,0,0,1,138.41615384615383,37.08)" id="clone"><svg viewBox="0 0 118.6876923076923 173.04" height="173.04" width="118.6876923076923"><g><svg viewBox="0 0 118.6876923076923 173.04" height="173.04" width="118.6876923076923"><g><svg viewBox="0 0 118.6876923076923 173.04" height="173.04" width="118.6876923076923"><g><svg viewBox="0 0 118.6876923076923 173.04" height="173.04" width="118.6876923076923"><g id="SvgjsG1066"><svg viewBox="0 0 118.6876923076923 173.04" height="173.04" width="118.6876923076923" id="SvgjsSvg1065"><g><svg viewBox="0 0 118.6876923076923 173.04" height="173.04" width="118.6876923076923"><g transform="matrix(1,0,0,1,0,0)"><svg width="118.6876923076923" viewBox="-1.850000023841858 -36.400001525878906 27.75 40" height="173.04" data-palette-color="#ffffff"><path d="M20.95-6.35Q22.9-5.5 22.9-4.05L22.9-4.05Q22.9-3.15 22-2.3 21.1-1.45 19.95-1.1L19.95-1.1Q17.2-0.8 16.05-0.75L16.05-0.75Q9.35-0.2 6.6 0.3L6.6 0.3Q6.15 0.6 4.7 0.6L4.7 0.6Q3.3 0.6 2.23-0.7 1.15-2 1.15-3.4L1.15-3.4Q1.15-3.95 1.3-4.45L1.3-4.45 7.7-29.75Q8.25-31.95 8.88-32.68 9.5-33.4 11.15-33.4L11.15-33.4Q12.5-33.4 13.48-33.1 14.45-32.8 14.5-32.2L14.5-32.2Q14.5-30.8 8.05-5L8.05-5Q12.45-5.75 19.25-6.2L19.25-6.2 20.95-6.35Z" opacity="1" transform="matrix(1,0,0,1,0,0)" fill="black" class="wordmark-text-0" id="SvgjsPath1064" stroke-width="5" stroke="black" stroke-linejoin="round"></path></svg></g></svg></g></svg></g></svg></g></svg></g></svg></g></svg></g></mask><g mask="url(#6ac6231c-f66d-4a75-bf2d-c3e295f95eb4)"><g><path xmlns="http://www.w3.org/2000/svg" d="M246.284 178.241c7.068 3.081 10.602 7.249 10.602 12.505v0c0 3.262-1.631 6.434-4.893 9.514-3.262 3.081-6.977 5.256-11.146 6.525v0c-9.968 1.087-17.036 1.722-21.203 1.903v0c-24.285 1.994-41.411 3.896-51.379 5.708v0c-1.631 1.087-5.074 1.631-10.33 1.631v0c-5.074 0-9.551-2.356-13.429-7.068-3.915-4.712-5.872-9.605-5.872-14.679v0c0-1.994 0.272-3.896 0.815-5.709v0l34.796-137.554c1.994-7.974 4.132-13.284 6.416-15.93 2.247-2.61 6.361-3.915 12.342-3.914v0c4.893 0 9.116 0.544 12.668 1.631 3.516 1.087 5.364 2.718 5.545 4.893v0c0 5.074-11.689 54.369-35.068 147.884v0c15.948-2.718 36.246-4.893 60.894-6.525v0z" fill="#000000" fill-rule="nonzero" stroke="none" stroke-width="1" stroke-linecap="butt" stroke-linejoin="miter" stroke-miterlimit="10" stroke-dasharray="" stroke-dashoffset="0" font-family="none" font-weight="none" font-size="none" text-anchor="none" style="mix-blend-mode: normal" data-fill-palette-color="tertiary"></path></g></g><g transform="matrix(1,0,0,1,138.41615384615383,37.08)"><svg viewBox="0 0 118.6876923076923 173.04" height="173.04" width="118.6876923076923"><g><svg viewBox="0 0 118.6876923076923 173.04" height="173.04" width="118.6876923076923"><g><svg viewBox="0 0 118.6876923076923 173.04" height="173.04" width="118.6876923076923"><g><svg viewBox="0 0 118.6876923076923 173.04" height="173.04" width="118.6876923076923"><g id="textblocktransform"><svg viewBox="0 0 118.6876923076923 173.04" height="173.04" width="118.6876923076923" id="textblock"><g><svg viewBox="0 0 118.6876923076923 173.04" height="173.04" width="118.6876923076923"><g transform="matrix(1,0,0,1,0,0)"><svg width="118.6876923076923" viewBox="-1.850000023841858 -36.400001525878906 27.75 40" height="173.04" data-palette-color="#ffffff"><path d="M20.95-6.35Q22.9-5.5 22.9-4.05L22.9-4.05Q22.9-3.15 22-2.3 21.1-1.45 19.95-1.1L19.95-1.1Q17.2-0.8 16.05-0.75L16.05-0.75Q9.35-0.2 6.6 0.3L6.6 0.3Q6.15 0.6 4.7 0.6L4.7 0.6Q3.3 0.6 2.23-0.7 1.15-2 1.15-3.4L1.15-3.4Q1.15-3.95 1.3-4.45L1.3-4.45 7.7-29.75Q8.25-31.95 8.88-32.68 9.5-33.4 11.15-33.4L11.15-33.4Q12.5-33.4 13.48-33.1 14.45-32.8 14.5-32.2L14.5-32.2Q14.5-30.8 8.05-5L8.05-5Q12.45-5.75 19.25-6.2L19.25-6.2 20.95-6.35Z" opacity="1" transform="matrix(1,0,0,1,0,0)" fill="#000000" class="wordmark-text-0" data-fill-palette-color="primary" id="text-0"></path></svg></g></svg></g></svg></g></svg></g></svg></g></svg></g></svg></g></svg></g><defs></defs></svg><rect width="395.52" height="247.2" fill="none" stroke="none" visibility="hidden"></rect></g></svg></g></svg>